<svg width="40" height="40" viewBox="0 0 40 40" fill="none" xmlns="http://www.w3.org/2000/svg">
<path d="M21.2804 8.64307C11.1372 8.64307 2.91455 16.9335 2.91455 27.1602C2.91455 27.4506 2.92118 27.7395 2.93431 28.0267L9.84162 28.0401C9.80759 27.6803 9.79018 27.3156 9.79018 26.9469C9.79018 20.6665 14.8398 15.5753 21.0689 15.5753C26.9547 15.5753 31.7876 20.121 32.3022 25.9204H29.5077C28.982 21.6701 25.2468 18.3749 21.0689 18.3749C17.5713 18.3749 14.6258 20.6243 13.3206 23.6674L15.0095 24.6672C15.9262 22.1911 18.2933 20.4279 21.0689 20.4279C24.2026 20.4279 27.5346 23.3466 27.5346 26.9469C27.5346 27.3128 27.5047 27.6716 27.4472 28.0211L34.3954 28.0134C34.4228 27.6615 34.4367 27.3058 34.4367 26.9469C34.4367 19.5032 28.4517 13.469 21.0689 13.469C14.0286 13.469 8.25941 18.9563 7.73924 25.9204H5.129C5.75739 17.4803 12.7485 10.8294 21.2804 10.8294C26.0557 10.8294 30.3483 12.9128 33.3128 16.2273L34.8744 14.7088C31.5147 10.9825 26.6686 8.64307 21.2804 8.64307Z" fill="white"/>
</svg>
